# xmcd
#
# Track frame offsets: 
#        150
#        17228
#        31883
#        44603
#        76378
#        100508
#        123745
#        160473
#        181023
#        204455
#        237813
#        275400
#
# Disc length: 4115 seconds
#
# Revision: 1
# Processed by: cddbd v1.5.2PL0 Copyright (c) Steve Scherf et al.
# Submitted via: ExactAudioCopy v0.99pb5
#
DISCID=9910110c
DTITLE=Charles Mingus - The Complete Town Hall Concert
DYEAR=1962
DGENRE=Jazz
TTITLE0=Freedom | Part One
TTITLE1=Freedom | Part Two [aka Clark in the dark]
TTITLE2=Osmotin'
TTITLE3=Epitaph | Part One
TTITLE4=Peggy's Blue Skylight
TTITLE5=Epitaph | Part Two
TTITLE6=My search
TTITLE7=Portrait
TTITLE8=Duke's choice [aka Don't come back]
TTITLE9=Please don't come back from the Moon
TTITLE10=In a mellotone [aka Finale]
TTITLE11=Epitaph | Part 1 [Alternate take]
EXTD=YEAR: 1962
EXTT0=
EXTT1=
EXTT2=
EXTT3=
EXTT4=
EXTT5=
EXTT6=
EXTT7=
EXTT8=
EXTT9=
EXTT10=
EXTT11=
PLAYORDER=
